<svg width="124" height="108" viewBox="0 0 124 108" fill="none" xmlns="http://www.w3.org/2000/svg">
<path d="M111.631 20.0538H84.925V9.29243C84.925 4.16842 80.7564 0 75.6324 0H48.3658C43.2418 0 39.0731 4.16842 39.0731 9.29243V20.0538H12.3669C5.56367 20.0538 0.0286527 25.5888 0.0286527 32.392C0.0286527 38.5717 -0.604223 44.1215 4.07876 50.3627C6.72833 53.8938 10.3694 56.4128 14.6082 57.6468L55.7695 69.6311C59.8444 70.8174 64.1525 70.8179 68.2282 69.6311L109.39 57.6468C113.628 56.4125 117.269 53.8938 119.919 50.3627C124.623 44.0935 123.969 38.4866 123.969 32.392C123.969 25.5888 118.435 20.0538 111.631 20.0538V20.0538ZM46.9441 9.29243C46.9441 8.50853 47.5819 7.87098 48.3658 7.87098H75.6324C76.4163 7.87098 77.0541 8.50878 77.0541 9.29243V20.0538H46.9441V9.29243Z" fill="white"/>
<path d="M111.59 65.2039C67.1927 78.1305 67.7676 78.3919 61.9991 78.3919C56.272 78.3919 57.6307 78.3708 12.4083 65.2041C7.64017 63.8156 3.41739 61.2566 0.0289307 57.7286V95.4985C0.0289307 102.302 5.56371 107.837 12.3672 107.837H111.631C118.435 107.837 123.97 102.302 123.97 95.4985V57.7286C120.581 61.2563 116.358 63.8156 111.59 65.2039V65.2039Z" fill="white"/>
</svg>
