<svg width="27" height="28" viewBox="0 0 27 28" fill="none" xmlns="http://www.w3.org/2000/svg">
<path d="M16.4745 10.5259C16.1546 10.2041 15.7999 9.91888 15.417 9.67541C14.4029 9.026 13.2239 8.68092 12.0196 8.68092C10.3481 8.67781 8.74459 9.34193 7.56475 10.5259L1.84091 16.2542C0.663065 17.4343 0.00105596 19.0332 1.30431e-06 20.7005C-0.00221348 24.1799 2.81646 27.0022 6.29578 27.0044C7.96467 27.0102 9.56675 26.3492 10.7462 25.1684L15.471 20.4436C15.5569 20.3585 15.6048 20.2423 15.6041 20.1215C15.6027 19.8729 15.4001 19.6727 15.1515 19.6741H14.9716C13.9844 19.6776 13.006 19.488 12.0917 19.1161C11.9232 19.0468 11.7295 19.0859 11.6012 19.2151L8.20376 22.617C7.14879 23.672 5.43834 23.672 4.38337 22.617C3.3284 21.562 3.3284 19.8516 4.38337 18.7966L10.1297 13.0548C11.1839 12.002 12.8915 12.002 13.9456 13.0548C14.6561 13.7234 15.7642 13.7234 16.4745 13.0548C16.7802 12.7489 16.9655 12.3432 16.9966 11.9118C17.0294 11.3963 16.8393 10.8915 16.4745 10.5259Z" fill="white"/>
<path d="M25.1547 1.84551C22.6944 -0.614846 18.7054 -0.614846 16.245 1.84551L11.5246 6.56136C11.395 6.69161 11.3576 6.88752 11.4301 7.05637C11.5018 7.22569 11.6693 7.33438 11.8531 7.33084H12.0196C13.0056 7.32905 13.9823 7.5201 14.895 7.89334C15.0635 7.96269 15.2571 7.92356 15.3854 7.79436L18.7739 4.41044C19.8288 3.35547 21.5393 3.35547 22.5942 4.41044C23.6492 5.46542 23.6492 7.17586 22.5942 8.23083L18.3733 12.4472L18.3373 12.4877L16.8614 13.9547C15.8073 15.0075 14.0996 15.0075 13.0455 13.9547C12.3351 13.2861 11.2269 13.2861 10.5166 13.9547C10.209 14.2629 10.0235 14.6722 9.99457 15.1066C9.96166 15.6221 10.1518 16.1269 10.5166 16.4926C11.0374 17.0157 11.6468 17.4422 12.3165 17.7525C12.411 17.7975 12.5055 17.8335 12.6 17.874C12.6945 17.9145 12.7935 17.946 12.888 17.982C12.9825 18.0181 13.0814 18.0495 13.1759 18.0765L13.4415 18.1485C13.6214 18.1935 13.8015 18.2295 13.9859 18.261C14.2081 18.294 14.4319 18.3151 14.6564 18.324H14.9714H14.9984L15.2684 18.2925C15.3674 18.2881 15.4709 18.2655 15.5879 18.2655H15.7409L16.0514 18.2206L16.1954 18.1936L16.4563 18.1396H16.5059C17.6112 17.8619 18.6205 17.2896 19.4263 16.4836L25.1546 10.7553C27.6151 8.2949 27.6151 4.30587 25.1547 1.84551Z" fill="white"/>
</svg>
