<svg width="124" height="124" viewBox="0 0 124 124" fill="none" xmlns="http://www.w3.org/2000/svg">
<path d="M64.2161 123.751C73.6983 122.404 82.0109 112.507 87.2417 97.8915C79.6801 96.1981 71.9638 95.2891 64.2161 95.1809V123.751Z" fill="white"/>
<path d="M79.3653 121.427C79.9258 121.265 80.4842 121.101 81.0382 120.922C81.5057 120.771 81.9666 120.609 82.4276 120.448C82.973 120.259 83.5162 120.066 84.0572 119.86C84.5182 119.685 84.9748 119.499 85.4326 119.312C85.9606 119.091 86.4876 118.87 87.0091 118.648C87.4647 118.448 87.917 118.238 88.3693 118.027C88.8811 117.786 89.3908 117.54 89.8961 117.285C90.3398 117.058 90.7824 116.828 91.226 116.591C91.7227 116.325 92.2161 116.053 92.7063 115.774C93.15 115.523 93.5774 115.271 94.0091 115.011C94.4896 114.716 94.9678 114.42 95.4429 114.125C95.8681 113.854 96.2923 113.58 96.7111 113.296C97.1785 112.981 97.6395 112.653 98.0983 112.325C98.5106 112.03 98.9207 111.736 99.3232 111.439C99.7669 111.097 100.221 110.743 100.666 110.389C101.061 110.074 101.455 109.761 101.843 109.437C102.286 109.069 102.71 108.689 103.14 108.308C103.516 107.973 103.895 107.642 104.263 107.299C104.686 106.904 105.098 106.495 105.511 106.089C105.868 105.737 106.229 105.389 106.579 105.028C106.643 104.961 106.705 104.888 106.772 104.819C101.939 102.323 96.8474 100.363 91.5874 98.9758C88.8519 107.7 83.9836 115.605 77.4241 121.974C77.6037 121.928 77.7833 121.89 77.9629 121.843C78.4369 121.71 78.9022 121.564 79.3653 121.427V121.427Z" fill="white"/>
<path d="M124 64.0916H97.4284C97.3278 74.4666 95.8226 84.7799 92.954 94.7513C98.8037 96.3138 104.449 98.5602 109.773 101.444C118.514 90.9088 123.517 77.7734 124 64.0916V64.0916Z" fill="white"/>
<path d="M64.2161 59.6594H92.9962C92.8836 49.6512 91.4153 39.7047 88.6332 30.0905C80.6193 31.9181 72.4345 32.8941 64.2161 33.0023V59.6594Z" fill="white"/>
<path d="M64.2161 0V28.5702C71.9638 28.4609 79.6801 27.553 87.2417 25.8596C82.0109 11.2439 73.6983 1.34719 64.2161 0V0Z" fill="white"/>
<path d="M64.2161 90.7486C72.4345 90.8579 80.6193 91.834 88.6332 93.6616C91.4153 84.0473 92.8836 74.0997 92.9962 64.0916H64.2161V90.7486Z" fill="white"/>
<path d="M109.773 22.3071C104.449 25.1909 98.8037 27.4373 92.954 28.9998C95.8226 38.9712 97.3278 49.2845 97.4284 59.6595H124C123.516 45.9787 118.513 32.8434 109.773 22.3071V22.3071Z" fill="white"/>
<path d="M106.779 18.9451C106.714 18.8791 106.652 18.8076 106.588 18.7395C106.238 18.3781 105.874 18.0296 105.517 17.678C105.106 17.2722 104.696 16.8621 104.272 16.4682C103.905 16.1262 103.525 15.8027 103.148 15.4619C102.719 15.081 102.289 14.6968 101.848 14.3289C101.465 14.0054 101.072 13.6959 100.682 13.3853C100.239 13.0261 99.7842 12.669 99.3275 12.326C98.9272 12.0241 98.5214 11.7319 98.1134 11.4398C97.6503 11.1065 97.185 10.7743 96.7132 10.4572C96.2988 10.178 95.8778 9.90536 95.4569 9.63809C94.9776 9.3297 94.4993 9.0278 94.0113 8.73564C93.5838 8.47918 93.1521 8.22597 92.7193 7.98034C92.2237 7.69684 91.727 7.42199 91.226 7.15363C90.7823 6.93181 90.3398 6.6905 89.8961 6.46867C89.3864 6.21114 88.8725 5.96334 88.3455 5.71987C87.9018 5.50887 87.4517 5.30327 86.995 5.10309C86.4702 4.87044 85.94 4.66052 85.4109 4.43869C84.9542 4.25257 84.4998 4.06862 84.0388 3.89332C83.501 3.68773 82.9556 3.49512 82.4103 3.30683C81.9493 3.14452 81.4883 2.98329 81.0209 2.8318C80.4668 2.65217 79.9128 2.48878 79.3436 2.3243C78.8827 2.18904 78.4195 2.05162 77.9532 1.92826C77.7746 1.87957 77.5928 1.8417 77.4132 1.79517C83.9728 8.1643 88.84 16.0689 91.5766 24.7937C96.842 23.4065 101.941 21.4458 106.779 18.9451V18.9451Z" fill="white"/>
<path d="M0 59.6595H26.5716C26.6722 49.2845 28.1774 38.9712 31.0449 28.9998C25.1963 27.4384 19.551 25.192 14.2272 22.3071C5.48615 32.8423 0.482608 45.9787 0 59.6595Z" fill="white"/>
<path d="M59.7839 123.751V95.1809C52.0362 95.2902 44.3199 96.1981 36.7583 97.8915C41.988 112.507 50.3016 122.404 59.7839 123.751Z" fill="white"/>
<path d="M59.7839 64.0916H31.0038C31.1163 74.0997 32.5836 84.0473 35.3667 93.6616C43.3806 91.8329 51.5644 90.8568 59.7839 90.7486V64.0916Z" fill="white"/>
<path d="M59.7839 0C50.3016 1.34719 41.988 11.2439 36.7583 25.8596C44.3199 27.5541 52.0362 28.462 59.7839 28.5702V0Z" fill="white"/>
<path d="M59.7839 33.0023C51.5655 32.8941 43.3806 31.9181 35.3667 30.0905C32.5836 39.7047 31.1163 49.6512 31.0038 59.6594H59.7839V33.0023Z" fill="white"/>
<path d="M46.5695 1.79297C46.3899 1.8395 46.2102 1.87737 46.0306 1.9239C45.561 2.04942 45.0979 2.18901 44.6304 2.32427C44.0742 2.48658 43.5224 2.64998 42.964 2.82744C42.4933 2.98001 42.0302 3.14232 41.567 3.30355C41.0249 3.49508 40.4817 3.68553 39.945 3.88896C39.4819 4.06642 39.0252 4.25038 38.5664 4.43866C38.0394 4.66048 37.5114 4.88231 36.9909 5.10306C36.5343 5.30324 36.083 5.51316 35.6307 5.72417C35.1189 5.96547 34.6093 6.21111 34.1039 6.46648C33.6603 6.69263 33.2166 6.9242 32.774 7.16009C32.2774 7.42628 31.785 7.69897 31.2959 7.97815C30.8523 8.22594 30.4162 8.48023 29.9888 8.73993C29.5072 9.02993 29.0311 9.32967 28.5572 9.62616C28.1308 9.89884 27.7077 10.1737 27.289 10.4572C26.8215 10.7721 26.3605 11.1 25.9017 11.4278C25.4895 11.7232 25.0794 12.0176 24.6757 12.3151C24.2224 12.656 23.7895 13.0109 23.3329 13.3647C22.939 13.6796 22.5419 13.9924 22.1567 14.3181C21.713 14.6838 21.2921 15.0625 20.8647 15.4413C20.4859 15.7789 20.104 16.1067 19.7339 16.4563C19.313 16.849 18.9028 17.257 18.4917 17.6617C18.1346 18.0145 17.771 18.3629 17.4204 18.7254C17.3566 18.7925 17.2949 18.866 17.2278 18.9342C22.0604 21.4317 27.1526 23.3913 32.4126 24.7785C35.1481 16.0591 40.0132 8.15885 46.5695 1.79297V1.79297Z" fill="white"/>
<path d="M18.482 106.073C18.8942 106.479 19.3043 106.889 19.7274 107.284C20.0953 107.625 20.4741 107.948 20.8517 108.289C21.2813 108.671 21.7109 109.054 22.1524 109.422C22.5354 109.744 22.9261 110.054 23.3178 110.366C23.7614 110.725 24.204 111.082 24.6736 111.427C25.0729 111.727 25.4787 112.017 25.8845 112.315C26.3476 112.647 26.8151 112.979 27.2869 113.298C27.7013 113.577 28.1222 113.85 28.5431 114.118C29.0225 114.426 29.5008 114.728 29.9888 115.02C30.4162 115.277 30.848 115.529 31.2808 115.776C31.7764 116.06 32.2731 116.334 32.7741 116.602C33.2167 116.824 33.6603 117.065 34.104 117.287C34.6136 117.544 35.1276 117.792 35.6546 118.037C36.0982 118.245 36.5484 118.451 37.005 118.652C37.5298 118.885 38.059 119.095 38.5892 119.317C39.0458 119.503 39.5003 119.687 39.9613 119.862C40.4991 120.069 41.0444 120.261 41.5898 120.45C42.0508 120.611 42.5117 120.773 42.9792 120.924C43.5332 121.103 44.0872 121.268 44.6564 121.431C45.1174 121.566 45.5805 121.704 46.0458 121.828C46.2254 121.877 46.4072 121.915 46.5869 121.961C40.0273 115.591 35.1601 107.686 32.4235 98.9617C27.1635 100.35 22.0712 102.31 17.2386 104.808C17.3036 104.874 17.3653 104.946 17.4302 105.014C17.7624 105.373 18.1205 105.721 18.482 106.073V106.073Z" fill="white"/>
<path d="M14.2272 101.444C19.551 98.5602 25.1963 96.3138 31.0449 94.7513C28.1774 84.7799 26.6722 74.4666 26.5716 64.0916H0C0.48369 77.7723 5.48615 90.9077 14.2272 101.444V101.444Z" fill="white"/>
</svg>
